<svg width="32" height="32" viewBox="0 0 32 32" fill="none" xmlns="http://www.w3.org/2000/svg">
<path d="M30 15.9994C30.0008 15.6598 29.9138 15.3259 29.7473 15.0299C29.5808 14.734 29.3406 14.4862 29.05 14.3106L11.04 3.29313C10.7364 3.10719 10.3886 3.00569 10.0326 2.9991C9.67661 2.9925 9.32532 3.08106 9.015 3.25563C8.70764 3.42748 8.4516 3.6781 8.2732 3.98171C8.09481 4.28533 8.00051 4.63098 8 4.98313V27.0156C8.00051 27.3678 8.09481 27.7134 8.2732 28.017C8.4516 28.3207 8.70764 28.5713 9.015 28.7431C9.32532 28.9177 9.67661 29.0062 10.0326 28.9997C10.3886 28.9931 10.7364 28.8916 11.04 28.7056L29.05 17.6881C29.3406 17.5125 29.5808 17.2647 29.7473 16.9688C29.9138 16.6729 30.0008 16.3389 30 15.9994Z" fill="black"/>
</svg>
